#N canvas 1 36 993 813 12;
#X obj 184 491 vsl 30 128 0 127 0 0 empty empty Depth 0 -9 0 12 #fcfcfc
#000000 #000000 0 1;
#X obj 118 491 vsl 30 128 0 127 0 0 empty empty Rate 0 -9 0 12 #fcfcfc
#000000 #000000 0 1;
#X text 137 439 Tremollo;
#X obj 285 153 vsl 30 128 0 127 0 0 empty empty Attack 0 -9 0 12 #fcfcfc
#000000 #000000 0 1;
#X obj 351 153 vsl 30 128 0 127 0 0 empty empty Release 0 -9 0 12 #fcfcfc
#000000 #000000 0 1;
#X obj 285 311 ctlout 16;
#X obj 351 311 ctlout 19;
#X text 302 105 Envelope;
#X obj 352 489 vsl 30 128 0 127 0 0 empty empty Depth 0 -9 0 12 #fcfcfc
#000000 #000000 0 1;
#X obj 286 489 vsl 30 128 0 127 0 0 empty empty Time 0 -9 0 12 #fcfcfc
#000000 #000000 0 1;
#X text 321 437 Mod;
#X obj 286 647 ctlout 28;
#X obj 352 647 ctlout 29;
#X obj 791 489 vsl 30 128 0 127 0 0 empty empty Depth 0 -9 0 12 #fcfcfc
#000000 #000000 0 1;
#X obj 725 489 vsl 30 128 0 127 0 0 empty empty Time 0 -9 0 12 #fcfcfc
#000000 #000000 0 1;
#X text 781 435 Reverb;
#X obj 857 489 vsl 30 128 0 127 0 0 empty empty Mix 0 -9 0 12 #fcfcfc
#000000 #000000 0 1;
#X obj 725 647 ctlout 34;
#X obj 791 647 ctlout 35;
#X obj 857 647 ctlout 36;
#X obj 547 489 vsl 30 128 0 127 0 0 empty empty Depth 0 -9 0 12 #fcfcfc
#000000 #000000 0 1;
#X obj 481 489 vsl 30 128 0 127 0 0 empty empty Time 0 -9 0 12 #fcfcfc
#000000 #000000 0 1;
#X obj 613 489 vsl 30 128 0 127 0 0 empty empty Mix 0 -9 0 12 #fcfcfc
#000000 #000000 0 1;
#X text 537 435 Delay;
#X obj 481 647 ctlout 30;
#X obj 547 647 ctlout 31;
#X obj 613 647 ctlout 32;
#X obj 526 154 vsl 30 128 0 127 0 0 empty empty Resonance 0 -9 0 12
#fcfcfc #000000 #000000 0 1;
#X obj 460 154 vsl 30 128 0 127 0 0 empty empty Cutoff 0 -9 0 12 #fcfcfc
#000000 #000000 0 1;
#X text 484 102 Filter;
#X obj 698 154 vsl 30 128 0 127 0 0 empty empty Depth 0 -9 0 12 #fcfcfc
#000000 #000000 0 1;
#X obj 632 154 vsl 30 128 0 127 0 0 empty empty Rate 0 -9 0 12 #fcfcfc
#000000 #000000 0 1;
#X obj 460 312 ctlout 43;
#X obj 526 312 ctlout 44;
#X text 656 94 Filter Sweep;
#X obj 632 312 ctlout 46;
#X obj 698 312 ctlout 45;
#X obj 120 153 vsl 30 128 0 127 0 0 empty empty Shape 0 -9 0 12 #fcfcfc
#000000 #000000 0 1;
#X obj 186 153 vsl 30 128 0 127 0 0 empty empty Alt 0 -9 0 12 #fcfcfc
#000000 #000000 0 1;
#X text 130 105 Oscillator;
#X obj 120 311 ctlout 54;
#X obj 186 311 ctlout 55;
#X obj 932 154 vsl 30 128 0 127 0 0 empty empty Interval 0 -9 0 12
#fcfcfc #000000 #000000 0 1;
#X obj 866 154 vsl 30 128 0 127 0 0 empty empty Pattern 0 -9 0 12 #fcfcfc
#000000 #000000 0 1;
#X obj 998 154 vsl 30 128 0 127 0 0 empty empty Length 0 -9 0 12 #fcfcfc
#000000 #000000 0 1;
#X text 922 100 Arp;
#X obj 866 312 ctlout 117;
#X obj 932 312 ctlout 118;
#X obj 998 312 ctlout 119;
#X obj 118 649 ctlout 20;
#X obj 184 649 ctlout 21;
#X msg 699 334 63;
#X obj 680 212 bng 15 250 50 0 empty empty empty 17 7 0 10 #fcfcfc
#000000 #000000;
#X msg 859 667 63;
#X obj 840 545 bng 15 250 50 0 empty empty empty 17 7 0 10 #fcfcfc
#000000 #000000;
#X msg 617 666 63;
#X obj 598 544 bng 15 250 50 0 empty empty empty 17 7 0 10 #fcfcfc
#000000 #000000;
#X obj 1470 937 vsl 30 128 0 127 0 0 empty empty Depth 0 -9 0 12 #fcfcfc
#000000 #000000 0 1;
#X obj 1199 935 vsl 30 128 0 127 0 0 empty empty Time 0 -9 0 12 #fcfcfc
#000000 #000000 0 1;
#X obj 1978 837 vsl 30 128 0 127 0 0 empty empty Mix 0 -9 0 12 #fcfcfc
#000000 #000000 0 1;
#X text 1806 651 Delay;
#X obj 1174 1146 ctlout 30;
#X obj 1503 1146 ctlout 31;
#X obj 1979 1031 ctlout 32;
#X msg 1910 738 63, f 4;
#X obj 1908 675 bng 15 250 50 0 empty empty empty 17 7 0 10 #fcfcfc
#000000 #000000;
#X obj 1012 882 bng 15 250 50 0 empty empty empty 17 7 0 10 #fcfcfc
#000000 #000000;
#X floatatom 1509 1048 5 0 0 0 - - - 0;
#X text 2008 1535 comment;
#X text 1746 1287 comment;
#X obj 1003 845 bng 15 250 50 0 empty empty empty 17 7 0 10 #fcfcfc
#000000 #000000;
#X obj 1004 808 bng 15 250 50 0 empty empty empty 17 7 0 10 #fcfcfc
#000000 #000000;
#X floatatom 1258 1013 5 0 0 0 - - - 0;
#X floatatom 1157 669 5 0 100000 0 Modulation\ Frequency - - 0;
#X obj 1157 701 osc~;
#X obj 1157 740 *~;
#X floatatom 1234 709 5 0 1 1 Mod\ Index - - 0;
#X obj 1127 856 line;
#X obj 1071 1509 vline~;
#X obj 1072 1542 snapshot~;
#X obj 1082 1437 tgl 15 0 empty empty empty 17 7 0 10 #fcfcfc #000000
#000000 0 1;
#X obj 1096 1463 metro 100;
#X text 913 1423 This is whats in the docs \, but doesn't work. maybe
something about audio object \, not numeric object and audio is off??
, f 37;
#X msg 923 1480 40 500 \, 20 500 1000;
#X floatatom 1194 1530 5 0 0 0 - - - 0;
#X obj 920 950 bng 15 250 50 0 empty empty empty 17 7 0 10 #fcfcfc
#000000 #000000;
#X obj 934 1100 line;
#X obj 983 1023 delay 250;
#X msg 919 1025 10 250;
#X msg 984 1061 20 50;
#X obj 258 1038 vsl 30 128 0 127 0 0 empty empty Depth 0 -9 0 12 #fcfcfc
#000000 #000000 0 1;
#X obj 455 1016 vsl 30 128 0 127 0 0 empty empty Time 0 -9 0 12 #fcfcfc
#000000 #000000 0 1;
#X obj 462 1192 ctlout 30;
#X obj 260 1220 ctlout 31;
#X floatatom 243 1192 5 0 0 0 - - - 0;
#X floatatom 467 1165 5 0 0 0 - - - 0;
#X obj 384 813 bng 15 250 50 0 empty empty empty 17 7 0 10 #fcfcfc
#000000 #000000;
#X obj 398 963 line;
#X msg 448 924 20 50;
#X obj 217 969 line;
#X obj 267 894 delay 1000;
#X msg 383 888 1 50;
#X obj 448 888 delay 100;
#X text 773 807 ramp from current to x in y ms;
#X msg 1049 856 20 2000;
#X msg 1047 893 10 2000;
#X msg 1048 817 100 2000;
#X msg 202 894 120 10;
#X msg 267 930 70 5000;
#X connect 0 0 50 0;
#X connect 1 0 49 0;
#X connect 3 0 5 0;
#X connect 4 0 6 0;
#X connect 8 0 12 0;
#X connect 9 0 11 0;
#X connect 13 0 18 0;
#X connect 14 0 17 0;
#X connect 16 0 19 0;
#X connect 20 0 25 0;
#X connect 21 0 24 0;
#X connect 22 0 26 0;
#X connect 27 0 33 0;
#X connect 28 0 32 0;
#X connect 30 0 36 0;
#X connect 31 0 35 0;
#X connect 37 0 40 0;
#X connect 38 0 41 0;
#X connect 42 0 47 0;
#X connect 43 0 46 0;
#X connect 44 0 48 0;
#X connect 51 0 30 0;
#X connect 52 0 51 0;
#X connect 53 0 16 0;
#X connect 54 0 53 0;
#X connect 55 0 22 0;
#X connect 56 0 55 0;
#X connect 57 0 62 0;
#X connect 57 0 67 0;
#X connect 58 0 61 0;
#X connect 58 0 72 0;
#X connect 59 0 63 0;
#X connect 64 0 59 0;
#X connect 65 0 64 0;
#X connect 66 0 105 0;
#X connect 70 0 104 0;
#X connect 71 0 106 0;
#X connect 73 0 74 0;
#X connect 74 0 75 0;
#X connect 76 0 75 1;
#X connect 77 0 58 0;
#X connect 78 0 79 0;
#X connect 79 0 84 0;
#X connect 80 0 81 0;
#X connect 81 0 79 0;
#X connect 83 0 78 0;
#X connect 84 0 58 0;
#X connect 85 0 88 0;
#X connect 85 0 87 0;
#X connect 86 0 58 0;
#X connect 87 0 89 0;
#X connect 88 0 86 0;
#X connect 89 0 86 0;
#X connect 90 0 93 0;
#X connect 90 0 94 0;
#X connect 91 0 92 0;
#X connect 91 0 95 0;
#X connect 96 0 101 0;
#X connect 96 0 107 0;
#X connect 96 0 100 0;
#X connect 96 0 102 0;
#X connect 97 0 91 0;
#X connect 98 0 97 0;
#X connect 99 0 90 0;
#X connect 100 0 108 0;
#X connect 101 0 97 0;
#X connect 102 0 98 0;
#X connect 104 0 77 0;
#X connect 105 0 77 0;
#X connect 106 0 77 0;
#X connect 107 0 99 0;
#X connect 108 0 99 0;
